<?xml version="1.0" standalone="no"?>
<!DOCTYPE svg PUBLIC "-//W3C//DTD SVG 1.1//EN" "http://www.w3.org/Graphics/SVG/1.1/DTD/svg11.dtd">
<svg width="99mm" height="373mm" viewBox="-1 -372 99 373" xmlns="http://www.w3.org/2000/svg" version="1.1">
<title>OpenSCAD Model</title>
<path d="
M 91.0593,-0.163893 L 92.5505,-0.648409 L 93.9084,-1.43237 L 95.0736,-2.48152 L 95.9952,-3.75 L 96.6329,-5.18237
 L 96.9589,-6.71604 L 97,-7.5 L 97,-363.5 L 96.8361,-365.059 L 96.3516,-366.551 L 95.5676,-367.908
 L 94.5185,-369.074 L 93.25,-369.995 L 91.8176,-370.633 L 90.284,-370.959 L 89.5,-371 L 7.5,-371
 L 5.94066,-370.836 L 4.44948,-370.352 L 3.09161,-369.568 L 1.92641,-368.518 L 1.00481,-367.25 L 0.367076,-365.818
 L 0.0410858,-364.284 L 0,-363.5 L 0,-7.5 L 0.163893,-5.94066 L 0.648409,-4.44948 L 1.43237,-3.09161
 L 2.48152,-1.92641 L 3.75,-1.00481 L 5.18237,-0.367076 L 6.71604,-0.0410858 L 7.5,-0 L 89.5,-0
 z
" stroke="#000000" fill="none" stroke-width="0.35"/>
</svg>
