<svg xmlns="http://www.w3.org/2000/svg" width="54.0mm" height="88.0mm" viewBox="0.0 -42.3 54.0 88.0" version="1.1">
<title>OpenSCAD Model</title>
<path d="M 36.4194,0.695963 L 35.908,0.591126 L 35.3956,0.503009 L 34.8821,0.431613 L 34.3675,0.376938 L 33.8519,0.338984 L 33.3353,0.31775 L 33.8153,0.280643 L 34.2931,0.225819 L 34.7687,0.153276 L 35.242,0.0630149 L 35.7131,-0.0449639 L 36.182,-0.170661 L 36.6486,-0.314076 L 37.113,-0.475209 L 37.5752,-0.65406 L 38.0352,-0.850629 L 38.4929,-1.06492 L 38.9484,-1.29692 L 39.4017,-1.54664 L 39.8476,-1.8142 L 40.2813,-2.09971 L 40.7026,-2.40318 L 41.1117,-2.7246 L 41.5083,-3.06397 L 41.8927,-3.42129 L 42.2647,-3.79657 L 42.6244,-4.1898 L 42.9718,-4.60099 L 43.3069,-5.03012 L 43.6296,-5.47721 L 43.94,-5.94226 L 44.2381,-6.42525 L 44.5189,-6.92615 L 44.7772,-7.44471 L 45.0131,-7.98092 L 45.2265,-8.5348 L 45.4174,-9.10634 L 45.5859,-9.69554 L 45.7319,-10.3024 L 45.8555,-10.9269 L 45.9565,-11.5691 L 46.0352,-12.229 L 46.0913,-12.9065 L 46.125,-13.6016 L 46.1362,-14.3145 L 46.1239,-15.055 L 46.087,-15.7768 L 46.0254,-16.4798 L 45.9391,-17.1641 L 45.8283,-17.8296 L 45.6928,-18.4764 L 45.5327,-19.1044 L 45.3479,-19.7137 L 45.1385,-20.3042 L 44.9045,-20.876 L 44.6458,-21.429 L 44.3625,-21.9633 L 44.0545,-22.4788 L 43.7226,-22.9753 L 43.3675,-23.4524 L 42.9891,-23.91 L 42.5874,-24.3481 L 42.1624,-24.7668 L 41.7142,-25.1661 L 41.2428,-25.5459 L 40.7481,-25.9063 L 40.2301,-26.2472 L 39.6888,-26.5687 L 39.1243,-26.8707 L 38.5366,-27.1533 L 37.9256,-27.4164 L 37.2916,-27.66 L 36.6349,-27.8842 L 35.9554,-28.0889 L 35.2532,-28.274 L 34.5282,-28.4397 L 33.7805,-28.5859 L 33.01,-28.7126 L 32.2167,-28.8198 L 31.4006,-28.9075 L 30.5619,-28.9757 L 29.7003,-29.0245 L 28.816,-29.0537 L 27.9089,-29.0635 L 6.12852,-29.0635 L 6.12852,0.7 L 36.4364,0.7 L 36.4194,0.695963 M 14.8575,-3.14375 L 14.8575,-21.5385 L 25.6604,-21.5385 L 26.195,-21.5333 L 26.7185,-21.518 L 27.2308,-21.4924 L 27.7319,-21.4565 L 28.2218,-21.4104 L 28.7006,-21.3541 L 29.1681,-21.2875 L 29.6245,-21.2106 L 30.0697,-21.1236 L 30.5038,-21.0262 L 30.9266,-20.9187 L 31.3383,-20.8008 L 31.7388,-20.6728 L 32.1267,-20.5335 L 32.5004,-20.382 L 32.8601,-20.2183 L 33.2056,-20.0423 L 33.537,-19.8542 L 33.8544,-19.6538 L 34.1576,-19.4412 L 34.4467,-19.2164 L 34.7217,-18.9793 L 34.9826,-18.7301 L 35.2294,-18.4686 L 35.4621,-18.1949 L 35.6807,-17.909 L 35.8842,-17.6097 L 36.0714,-17.2955 L 36.2423,-16.9664 L 36.397,-16.6225 L 36.5353,-16.2638 L 36.6574,-15.8902 L 36.7632,-15.5018 L 36.8528,-15.0985 L 36.926,-14.6804 L 36.983,-14.2474 L 37.0237,-13.7996 L 37.0481,-13.3369 L 37.0563,-12.8594 L 37.0368,-12.1482 L 36.9782,-11.4631 L 36.8806,-10.804 L 36.744,-10.171 L 36.5683,-9.5641 L 36.3537,-8.98326 L 36.0999,-8.42849 L 35.8072,-7.8998 L 35.4754,-7.39719 L 35.1046,-6.92064 L 34.6947,-6.47018 L 34.2458,-6.04579 L 33.7579,-5.64747 L 33.2339,-5.2771 L 32.6766,-4.93635 L 32.0862,-4.62524 L 31.4626,-4.34376 L 30.8057,-4.0919 L 30.1157,-3.86968 L 29.3925,-3.67709 L 28.636,-3.51412 L 27.8464,-3.38079 L 27.0236,-3.27708 L 26.1675,-3.20301 L 25.2783,-3.15856 L 24.3559,-3.14375 L 14.8575,-3.14375" stroke="none" fill="#ffffff" stroke-width="0.1"/>
<path d="M 28.6873,32.5876 L 29.7029,32.5504 L 30.6889,32.4885 L 31.6455,32.4017 L 32.5724,32.2902 L 33.4699,32.1539 L 34.3378,31.9928 L 35.1761,31.8069 L 35.985,31.5962 L 36.7642,31.3607 L 37.514,31.1005 L 38.2342,30.8155 L 38.9249,30.5056 L 39.5873,30.1729 L 40.2227,29.8191 L 40.8311,29.4444 L 41.4124,29.0487 L 41.9666,28.6321 L 42.4937,28.1944 L 42.9938,27.7358 L 43.4668,27.2563 L 43.9127,26.7558 L 44.3316,26.2343 L 44.7234,25.6918 L 45.0882,25.1284 L 45.4259,24.544 L 45.7376,23.9408 L 46.0243,23.321 L 46.2861,22.6846 L 46.523,22.0316 L 46.735,21.3621 L 46.922,20.676 L 47.084,19.9733 L 47.2212,19.2541 L 47.3334,18.5183 L 47.4207,17.7659 L 47.483,16.9969 L 47.5204,16.2114 L 47.5329,15.4093 L 47.5202,14.5823 L 47.4821,13.7811 L 47.4186,13.0057 L 47.3298,12.2562 L 47.2156,11.5325 L 47.076,10.8346 L 46.911,10.1625 L 46.7206,9.51627 L 46.5048,8.89586 L 46.2637,8.30127 L 45.9972,7.73251 L 45.7052,7.18957 L 45.3879,6.67246 L 45.0514,6.17871 L 44.7014,5.70604 L 44.3381,5.25445 L 43.9614,4.82394 L 43.5714,4.41452 L 43.168,4.02617 L 42.7512,3.6589 L 42.3211,3.31272 L 41.8776,2.98761 L 41.4454,2.7 L 6.12852,2.7 L 6.12852,32.6 L 27.6422,32.6 L 28.6873,32.5876 M 14.8575,25.0666 L 14.8575,4.33068 L 24.8742,4.33068 L 25.2955,4.334 L 25.7129,4.34395 L 26.1266,4.36053 L 26.5364,4.38374 L 26.9424,4.41359 L 27.3447,4.45007 L 27.7431,4.49318 L 28.1377,4.54293 L 28.5286,4.59931 L 28.9156,4.66232 L 29.2988,4.73196 L 29.6782,4.80824 L 30.0538,4.89114 L 30.424,4.98119 L 30.7873,5.07905 L 31.1437,5.18474 L 31.4932,5.29825 L 31.8357,5.41959 L 32.1712,5.54874 L 32.4999,5.68572 L 32.8216,5.83052 L 33.1364,5.98314 L 33.4442,6.14359 L 33.7452,6.31186 L 34.0391,6.48795 L 34.3262,6.67186 L 34.6052,6.86443 L 34.8749,7.0665 L 35.1351,7.27807 L 35.3861,7.49913 L 35.6277,7.72969 L 35.8599,7.96974 L 36.0828,8.2193 L 36.2963,8.47834 L 36.5005,8.74689 L 36.6953,9.02493 L 36.8808,9.31247 L 37.0569,9.60951 L 37.2236,9.91604 L 37.3795,10.2329 L 37.5228,10.5608 L 37.6538,10.8998 L 37.7722,11.2498 L 37.8782,11.611 L 37.9717,11.9833 L 38.0527,12.3666 L 38.1213,12.761 L 38.1774,13.1665 L 38.221,13.5831 L 38.2522,14.0108 L 38.2709,14.4495 L 38.2771,14.8994 L 38.2577,15.6483 L 38.1994,16.3694 L 38.1023,17.0626 L 37.9664,17.728 L 37.7916,18.3655 L 37.578,18.9751 L 37.3255,19.5569 L 37.0342,20.1108 L 36.704,20.6368 L 36.3351,21.135 L 35.9272,21.6053 L 35.4805,22.0477 L 34.995,22.4623 L 34.4751,22.8476 L 33.9249,23.202 L 33.3445,23.5256 L 32.7338,23.8184 L 32.0929,24.0803 L 31.4218,24.3115 L 30.7205,24.5118 L 29.9889,24.6813 L 29.2272,24.82 L 28.4351,24.9279 L 27.6129,25.0049 L 26.7604,25.0512 L 25.8777,25.0666 L 14.8575,25.0666" stroke="none" fill="#ffffff" stroke-width="0.1"/></svg>