<svg xmlns="http://www.w3.org/2000/svg" width="54.0mm" height="88.0mm" viewBox="0.0 -42.3 54.0 88.0" version="1.1">
<title>OpenSCAD Model</title>
<path d="M 8.47109,0.375443 L 8.71444,-0.769292 L 8.9845,-1.88939 L 9.28127,-2.98484 L 9.60475,-4.05566 L 9.95494,-5.10184 L 10.3318,-6.12337 L 10.7333,-7.11437 L 11.1568,-8.06893 L 11.6025,-8.98705 L 12.0704,-9.86874 L 12.5604,-10.714 L 13.0725,-11.5228 L 13.6068,-12.2952 L 14.1633,-13.0311 L 14.7419,-13.7306 L 15.3426,-14.3937 L 15.9655,-15.0203 L 16.6105,-15.6105 L 17.2777,-16.1642 L 17.9648,-16.6792 L 18.6692,-17.153 L 19.391,-17.5856 L 20.1302,-17.977 L 20.8867,-18.3272 L 21.6607,-18.6363 L 22.452,-18.9041 L 23.2608,-19.1307 L 24.0869,-19.3161 L 24.9304,-19.4603 L 25.7913,-19.5633 L 26.6696,-19.6251 L 27.5652,-19.6457 L 29.0012,-19.6037 L 30.3807,-19.4776 L 31.7036,-19.2675 L 32.97,-18.9734 L 34.1799,-18.5953 L 35.3332,-18.1331 L 36.43,-17.5869 L 37.4703,-16.9567 L 38.4541,-16.2424 L 39.3813,-15.4441 L 40.252,-14.5618 L 41.0662,-13.5954 L 41.8238,-12.545 L 42.5221,-11.4137 L 43.1581,-10.2045 L 43.7318,-8.91753 L 44.2431,-7.55273 L 44.6921,-6.11009 L 45.0788,-4.58963 L 45.4032,-2.99134 L 45.6652,-1.31522 L 45.8649,0.438725 L 45.8845,0.7 L 50.0315,0.7 L 49.9191,-0.406889 L 49.7468,-1.73753 L 49.5405,-3.03693 L 49.3003,-4.30506 L 49.0261,-5.54195 L 48.718,-6.74758 L 48.3759,-7.92196 L 47.9998,-9.06509 L 47.5908,-10.1725 L 47.1497,-11.2398 L 46.6766,-12.2669 L 46.1713,-13.2538 L 45.6339,-14.2006 L 45.0644,-15.1072 L 44.4628,-15.9736 L 43.8291,-16.7999 L 43.1634,-17.586 L 42.4655,-18.332 L 41.7356,-19.0378 L 40.9735,-19.7034 L 40.1793,-20.3289 L 39.3577,-20.911 L 38.5131,-21.4466 L 37.6455,-21.9357 L 36.7549,-22.3781 L 35.8414,-22.774 L 34.9048,-23.1233 L 33.9452,-23.426 L 32.9627,-23.6822 L 31.9571,-23.8918 L 30.9286,-24.0548 L 29.8771,-24.1712 L 28.8026,-24.2411 L 27.705,-24.2644 L 26.6369,-24.2397 L 25.5858,-24.1658 L 24.5516,-24.0427 L 23.5344,-23.8702 L 22.5342,-23.6485 L 21.5509,-23.3775 L 20.5847,-23.0572 L 19.6354,-22.6876 L 18.7031,-22.2688 L 17.7877,-21.8007 L 16.8893,-21.2833 L 16.008,-20.7167 L 15.1435,-20.1008 L 14.3012,-19.4393 L 13.4859,-18.736 L 12.6978,-17.9909 L 11.9368,-17.204 L 11.2029,-16.3753 L 10.4961,-15.5047 L 9.81649,-14.5924 L 9.16395,-13.6382 L 8.53854,-12.6422 L 7.94025,-11.6044 L 7.36907,-10.5247 L 6.82501,-9.40328 L 6.30808,-8.24 L 5.82227,-7.04444 L 5.37145,-5.8261 L 4.95561,-4.58499 L 4.57476,-3.32111 L 4.22889,-2.03446 L 3.918,-0.725041 L 3.6421,0.607152 L 3.62559,0.7 L 8.41097,0.7 L 8.47109,0.375443 M 22.9779,0.531685 L 23.2963,-0.13158 L 23.6314,-0.752688 L 23.9797,-1.32411 L 24.3412,-1.84584 L 24.716,-2.31788 L 25.104,-2.74023 L 25.5052,-3.1129 L 25.9197,-3.43588 L 26.3475,-3.70916 L 26.7885,-3.93276 L 27.2427,-4.10667 L 27.7102,-4.23089 L 28.191,-4.30543 L 28.6849,-4.33027 L 28.927,-4.32551 L 29.1687,-4.31123 L 29.4099,-4.28743 L 29.6507,-4.25411 L 29.8911,-4.21127 L 30.131,-4.15891 L 30.3706,-4.09703 L 30.6097,-4.02563 L 30.8484,-3.94471 L 31.0867,-3.85427 L 31.3245,-3.75431 L 31.562,-3.64483 L 31.799,-3.52583 L 31.4752,0.7 L 36.3666,0.7 L 36.8377,-5.10066 L 36.4744,-5.42611 L 36.1164,-5.73499 L 35.7638,-6.02731 L 35.4166,-6.30306 L 35.0748,-6.56224 L 34.7383,-6.80485 L 34.4072,-7.0309 L 34.0815,-7.24038 L 33.7612,-7.43329 L 33.4463,-7.60964 L 33.1367,-7.76942 L 32.8326,-7.91263 L 32.5338,-8.03928 L 32.2344,-8.15317 L 31.9285,-8.25794 L 31.6159,-8.35361 L 31.2966,-8.44016 L 30.9708,-8.5176 L 30.6383,-8.58593 L 30.2991,-8.64516 L 29.9534,-8.69527 L 29.601,-8.73626 L 29.2419,-8.76815 L 28.8763,-8.79093 L 28.504,-8.8046 L 28.1251,-8.80915 L 27.6582,-8.79383 L 27.1941,-8.74787 L 26.733,-8.67126 L 26.2748,-8.56401 L 25.8195,-8.42612 L 25.3671,-8.25759 L 24.9176,-8.05841 L 24.4709,-7.82859 L 24.0272,-7.56813 L 23.5864,-7.27703 L 23.1485,-6.95528 L 22.7135,-6.60289 L 22.2814,-6.21986 L 21.8566,-5.80989 L 21.4437,-5.37652 L 21.0425,-4.91975 L 20.6532,-4.43957 L 20.2756,-3.936 L 19.9099,-3.40903 L 19.5559,-2.85865 L 19.2138,-2.28488 L 18.8835,-1.6877 L 18.565,-1.06713 L 18.2582,-0.423157 L 17.9633,0.244218 L 17.7765,0.7 L 22.9059,0.7 L 22.9779,0.531685" stroke="none" fill="#ffffff" stroke-width="0.1"/>
<path d="M 38.8345,26.4638 L 39.6485,26.3747 L 40.4345,26.2262 L 41.1926,26.0183 L 41.9228,25.751 L 42.625,25.4242 L 43.2993,25.0381 L 43.9456,24.5926 L 44.5639,24.0876 L 45.1543,23.5233 L 45.7168,22.8996 L 46.2513,22.2164 L 46.7578,21.4739 L 47.2331,20.6826 L 47.6738,19.8534 L 48.08,18.9864 L 48.4516,18.0815 L 48.7886,17.1388 L 49.091,16.1582 L 49.3588,15.1396 L 49.5921,14.0833 L 49.7908,12.989 L 49.9549,11.8569 L 50.0844,10.6869 L 50.1794,9.47904 L 50.2398,8.2333 L 50.2712,6.71513 L 50.2687,5.22822 L 50.2323,3.77256 L 50.1792,2.7 L 46.0192,2.7 L 46.0774,4.1801 L 46.0902,6.16753 L 46.0406,8.23278 L 45.9926,9.22798 L 45.9242,10.1901 L 45.8352,11.119 L 45.7258,12.0148 L 45.5959,12.8775 L 45.4455,13.7071 L 45.2745,14.5036 L 45.0831,15.2669 L 44.8712,15.9972 L 44.6388,16.6943 L 44.386,17.3582 L 44.1126,17.9891 L 43.8187,18.5868 L 43.5078,19.1457 L 43.1835,19.6598 L 42.8457,20.1292 L 42.4945,20.5539 L 42.1298,20.9339 L 41.7516,21.2692 L 41.3599,21.5598 L 40.9548,21.8057 L 40.5363,22.0068 L 40.1042,22.1633 L 39.6587,22.2751 L 39.1998,22.3421 L 38.7273,22.3645 L 38.1354,22.3166 L 37.5977,22.1732 L 37.1143,21.9341 L 36.6851,21.5993 L 36.3102,21.1689 L 35.9895,20.6428 L 35.723,20.0211 L 35.5108,19.3038 L 35.3528,18.4908 L 35.2491,17.5822 L 35.1996,16.5779 L 35.2044,15.4779 L 35.2634,14.2824 L 36.2042,2.7 L 31.322,2.7 L 30.4347,14.2824 L 30.3645,14.9826 L 30.2164,15.4583 L 30.0626,15.9166 L 29.9033,16.3576 L 29.7384,16.7811 L 29.5678,17.1873 L 29.3917,17.5761 L 29.21,17.9475 L 29.0227,18.3015 L 28.8298,18.6381 L 28.6313,18.9574 L 28.4272,19.2592 L 28.2175,19.5437 L 28.0023,19.8108 L 27.7836,20.0592 L 27.5634,20.2877 L 27.3418,20.4963 L 27.1187,20.6851 L 26.8942,20.854 L 26.6683,21.003 L 26.4409,21.1322 L 26.212,21.2415 L 25.9817,21.3309 L 25.75,21.4004 L 25.5168,21.4501 L 25.2822,21.4799 L 25.0461,21.4899 L 24.6821,21.4741 L 24.333,21.4269 L 23.9989,21.3483 L 23.6796,21.2381 L 23.3752,21.0965 L 23.0858,20.9234 L 22.8112,20.7189 L 22.5516,20.4829 L 22.3068,20.2154 L 22.077,19.9165 L 21.8621,19.5861 L 21.662,19.2242 L 21.4769,18.8309 L 21.3084,18.4082 L 21.158,17.9581 L 21.0259,17.4807 L 20.9121,16.976 L 20.8164,16.444 L 20.7389,15.8846 L 20.6797,15.2979 L 20.6387,14.6839 L 20.6159,14.0426 L 20.6114,13.3739 L 20.6251,12.6779 L 20.6569,11.9546 L 20.7071,11.2039 L 20.7869,10.1233 L 20.8867,9.07738 L 21.0063,8.06629 L 21.1459,7.08998 L 21.3053,6.14845 L 21.4846,5.24171 L 21.6837,4.36975 L 21.9028,3.53257 L 22.1417,2.73017 L 22.1519,2.7 L 17.0515,2.7 L 16.9222,3.10295 L 16.7022,3.85251 L 16.4986,4.61552 L 16.3113,5.39199 L 16.1404,6.1819 L 15.9858,6.98527 L 15.8476,7.80209 L 15.7258,8.63237 L 15.6202,9.4761 L 15.5311,10.3333 L 15.4583,11.2039 L 15.3881,12.2838 L 15.3498,13.3276 L 15.3434,14.335 L 15.3688,15.3063 L 15.4262,16.2414 L 15.5154,17.1402 L 15.6365,18.0028 L 15.7895,18.8291 L 15.9743,19.6193 L 16.1911,20.3732 L 16.4397,21.0909 L 16.7202,21.7724 L 17.0326,22.4176 L 17.3737,23.0206 L 17.74,23.5753 L 18.1315,24.0817 L 18.5483,24.54 L 18.9904,24.95 L 19.4577,25.3117 L 19.9503,25.6253 L 20.4681,25.8906 L 21.0112,26.1076 L 21.5796,26.2764 L 22.1732,26.397 L 22.7921,26.4694 L 23.4362,26.4935 L 23.7428,26.4853 L 24.0487,26.4608 L 24.3541,26.4199 L 24.6588,26.3627 L 24.9628,26.2891 L 25.2663,26.1991 L 25.5691,26.0928 L 25.8713,25.9702 L 26.1728,25.8312 L 26.4737,25.6758 L 26.774,25.5041 L 27.0737,25.3161 L 27.3727,25.1117 L 27.6694,24.8907 L 27.9616,24.6529 L 28.2496,24.3984 L 28.5331,24.1272 L 28.8123,23.8392 L 29.0872,23.5344 L 29.3577,23.2128 L 29.6238,22.8745 L 29.8856,22.5195 L 30.1431,22.1476 L 30.3962,21.759 L 30.6449,21.3537 L 30.8893,20.9315 L 31.1698,21.7543 L 31.4947,22.5113 L 31.8639,23.2024 L 32.2773,23.8277 L 32.7351,24.3872 L 33.2372,24.8809 L 33.7836,25.3087 L 34.3743,25.6707 L 35.0094,25.9669 L 35.6887,26.1973 L 36.4123,26.3619 L 37.1803,26.4606 L 37.9925,26.4935 L 38.8345,26.4638 M 26.0494,41.6463 L 26.527,41.6308 L 27.0035,41.6049 L 27.479,41.5687 L 27.9534,41.5221 L 28.4268,41.4651 L 28.8992,41.3978 L 29.3705,41.3201 L 29.8409,41.2321 L 30.3101,41.1337 L 30.7784,41.0249 L 31.2456,40.9058 L 31.7118,40.7764 L 32.1705,40.6389 L 32.6154,40.4957 L 33.0464,40.3466 L 33.4635,40.1917 L 33.8667,40.0311 L 34.2561,39.8646 L 34.6316,39.6924 L 34.9932,39.5143 L 35.3409,39.3304 L 35.6748,39.1408 L 35.9948,38.9453 L 36.3009,38.744 L 36.5931,38.5369 L 35.4383,34.5127 L 35.1689,34.6933 L 34.888,34.8693 L 34.5957,35.0404 L 34.2921,35.2068 L 33.977,35.3684 L 33.6506,35.5253 L 33.3128,35.6774 L 32.9635,35.8247 L 32.6029,35.9673 L 32.231,36.1051 L 31.8476,36.2382 L 31.4528,36.3664 L 31.0467,36.49 L 30.6348,36.6065 L 30.2227,36.7136 L 29.8104,36.8115 L 29.3979,36.9 L 28.9852,36.9792 L 28.5722,37.0491 L 28.1591,37.1097 L 27.7457,37.1609 L 27.3321,37.2028 L 26.9183,37.2355 L 26.5043,37.2588 L 26.0901,37.2727 L 25.6756,37.2774 L 24.3117,37.2332 L 22.9977,37.1006 L 21.7336,36.8796 L 20.5194,36.5702 L 19.3551,36.1724 L 18.2406,35.6862 L 17.1761,35.1116 L 16.1614,34.4487 L 15.1967,33.6973 L 14.2818,32.8575 L 13.4168,31.9293 L 12.6017,30.9127 L 11.8365,29.8078 L 11.1277,28.6243 L 10.4816,27.3724 L 9.89828,26.0519 L 9.37768,24.6629 L 8.91982,23.2054 L 8.5247,21.6794 L 8.19231,20.0848 L 7.92267,18.4217 L 7.71576,16.6901 L 7.57159,14.89 L 7.49016,13.0214 L 7.47147,11.0842 L 7.51552,9.0785 L 7.5719,7.76129 L 7.65499,6.46872 L 7.76479,5.20078 L 7.9013,3.95749 L 8.06452,2.73883 L 8.0707,2.7 L 3.29089,2.7 L 3.19525,3.33985 L 3.10246,4.1 L 3.2,4.1 L 3.2,18.7842 L 3.23456,19.0436 L 3.44701,20.3471 L 3.69424,21.6206 L 3.97625,22.8641 L 4.29304,24.0776 L 4.64462,25.2611 L 5.03098,26.4146 L 5.45056,27.5324 L 5.90183,28.6091 L 6.38476,29.6445 L 6.89937,30.6388 L 7.44566,31.5918 L 8.02362,32.5037 L 8.63325,33.3743 L 9.27456,34.2038 L 9.94754,34.992 L 10.6522,35.7391 L 11.3885,36.4449 L 12.1565,37.1096 L 12.9562,37.733 L 13.7837,38.3127 L 14.635,38.846 L 15.5102,39.3329 L 16.4091,39.7734 L 17.3318,40.1676 L 18.2784,40.5154 L 19.2487,40.8168 L 20.2429,41.0719 L 21.2609,41.2805 L 22.3027,41.4428 L 23.3683,41.5588 L 24.4577,41.6283 L 25.5709,41.6515 L 26.0494,41.6463" stroke="none" fill="#ffffff" stroke-width="0.1"/></svg>